# xmcd
#
# Track frame offsets:
#	150
#	13378
#	25439
#	38878
#	51412
#	67890
#	81240
#	94881
#	106686
#	119647
#	133296
#	146677
#	157575
#	170333
#	182859
#	197949
#	212665
#	223239
#	237614
#	251985
#	268780
#	280139
#	292455
#	306237
#	318988
#
# Disc length: 4417
#
# Revision: 2
# Processed by: cddbd v1.5.1PL0 Copyright (c) Steve Scherf et al.
# Submitted via: CDex 1.51
# Normalized: r0:TDELIM( - ),TSWAP
#
DISCID=96113f19
DTITLE=Various Artist - Jazz Station 4
DYEAR=2001
DGENRE=Jazz
TTITLE0=Charlie Parker - Cheryl
TTITLE1=Dizzy Gillespie - Groovin' High
TTITLE2=Miles Davis - Blue Room
TTITLE3=John Coltrane - Naima
TTITLE4=Cannonball Adderley - Minority
TTITLE5=Charlie Parker - Bluebird
TTITLE6=Thelonious Monk - Round Midnight
TTITLE7=Charles Mingus - Just For Laughs (Part 2)
TTITLE8=Dizzy Gillespie - Long, Long Summer
TTITLE9=Woody Herman - Caldonia
TTITLE10=Cannonball Adderley - Straight Life
TTITLE11=Charlie Parker - Constellation
TTITLE12=Miles Davis - Down
TTITLE13=Dizzy Gillespie - All The Things You Are
TTITLE14=Art Blakey and The Jazz Messengers - Free For All
TTITLE15=Charles Mingus - So Long Eric
TTITLE16=Miles Davis - Morpheus
TTITLE17=Cannonball Adderley - You'd Be So Nice To Come Home To
TTITLE18=Sidney Bechet - You're The Limit
TTITLE19=Wes Montgomery - 4 On 6
TTITLE20=Art Tatum - Battery Bounce
TTITLE21=Gene Krupa - Buggie Call Rag
TTITLE22=Herbie Mann - Carabunta
TTITLE23=Erroll Garner - On The Sunny Side Of The Street
TTITLE24=Django Reinhardt - Nuages
EXTD=YEAR: 2001
EXTT0=
EXTT1=
EXTT2=
EXTT3=
EXTT4=
EXTT5=
EXTT6=
EXTT7=
EXTT8=
EXTT9=
EXTT10=
EXTT11=
EXTT12=
EXTT13=
EXTT14=
EXTT15=
EXTT16=
EXTT17=
EXTT18=
EXTT19=
EXTT20=
EXTT21=
EXTT22=
EXTT23=
EXTT24=
PLAYORDER=
